#N canvas 373 184 592 425 10;
#X floatatom 186 351 6 0 0 0 - - -;
#X obj 11 171 tgl 35 0 empty empty empty 0 -6 0 8 -24198 -1 -1 0 25
;
#X obj 2 2 cnv 15 700 20 empty empty hid 2 11 1 18 -233017 -66577 0
;
#X msg 194 147 close;
#X msg 194 126 refresh;
#X text 255 124 refresh device list;
#X msg 256 208 poll 20;
#X text 190 193 start polling and set the poll delay in ms;
#X obj 125 305 route key rel abs syn;
#X msg 194 168 print;
#X obj 124 257 hid 0;
#X text 257 148 close the device;
#X text 257 169 print the device and element lists;
#X obj 186 330 route abs_x abs_y abs_z abs_rx abs_ry abs_rz abs_throttle
;
#X floatatom 236 351 6 0 0 0 - - -;
#X floatatom 286 351 6 0 0 0 - - -;
#X floatatom 336 351 6 0 0 0 - - -;
#X floatatom 386 351 6 0 0 0 - - -;
#X floatatom 436 351 6 0 0 0 - - -;
#X floatatom 486 351 6 0 0 0 - - -;
#X msg 118 152 info;
#N canvas 752 103 411 235 see 0;
#N canvas 108 318 543 264 route 0;
#X obj 27 14 inlet;
#X obj 72 226 outlet;
#X obj 19 226 outlet;
#X obj 172 226 outlet;
#X obj 222 204 symbol;
#X obj 222 226 outlet;
#X obj 272 204 symbol;
#X obj 272 226 outlet;
#X obj 322 204 symbol;
#X obj 322 226 outlet;
#X obj 372 204 symbol;
#X obj 372 226 outlet;
#X obj 122 225 outlet;
#X obj 422 204 symbol;
#X obj 422 226 outlet;
#X obj 472 204 symbol;
#X obj 472 226 outlet;
#X obj 26 63 route open device poll total product manufacturer transport
type vendorID productID;
#X connect 0 0 17 0;
#X connect 4 0 5 0;
#X connect 6 0 7 0;
#X connect 8 0 9 0;
#X connect 10 0 11 0;
#X connect 13 0 14 0;
#X connect 15 0 16 0;
#X connect 17 0 2 0;
#X connect 17 1 1 0;
#X connect 17 2 12 0;
#X connect 17 3 3 0;
#X connect 17 4 4 0;
#X connect 17 5 6 0;
#X connect 17 6 8 0;
#X connect 17 7 10 0;
#X connect 17 8 13 0;
#X connect 17 9 15 0;
#X restore 117 70 pd route info;
#X obj 81 96 tgl 15 0 empty empty open 0 -6 0 8 -262144 -1 -1 0 1;
#X obj 110 22 inlet;
#X obj 123 43 print info;
#X symbolatom 304 93 0 0 0 0 productID - -;
#X symbolatom 304 112 0 0 0 0 vendorID - -;
#X symbolatom 304 151 0 0 0 0 transport - -;
#X symbolatom 304 171 0 0 0 0 manufacturer - -;
#X symbolatom 186 192 0 0 0 0 product - -;
#X floatatom 97 140 5 0 0 0 device - -;
#X floatatom 97 162 5 0 0 0 poll - -;
#X symbolatom 304 131 0 0 0 0 type - -;
#X floatatom 97 182 5 0 0 0 total - -;
#X connect 0 0 1 0;
#X connect 0 1 9 0;
#X connect 0 2 10 0;
#X connect 0 3 12 0;
#X connect 0 4 8 0;
#X connect 0 5 7 0;
#X connect 0 6 6 0;
#X connect 0 7 11 0;
#X connect 0 8 5 0;
#X connect 0 9 4 0;
#X connect 2 0 0 0;
#X connect 2 0 3 0;
#X restore 151 281 pd see device info;
#X msg 324 208 poll 200;
#N canvas 504 253 494 344 META 0;
#X text 12 145 HELP_PATCH_AUTHORS "pd meta" information added by Jonathan
Wilkes for Pd version 0.42.;
#X text 12 25 LICENSE GPL;
#X text 12 125 AUTHOR Hans-Christoph Steiner;
#X text 12 65 INLET_0;
#X text 12 85 OUTLET_0;
#X text 12 105 OUTLET_1;
#X text 12 5 KEYWORDS control user_input;
#X text 12 45 DESCRIPTION;
#X restore 20 33 pd META;
#X msg 86 97 open 0x0000 0x0001;
#X text 209 98 the minia;
#X obj 434 82 loadbang;
#X obj 256 81 delay 1000;
#X obj 95 58 bng 15 250 50 0 empty empty empty 17 7 0 10 -262144 -1
-1;
#X text 143 47 connect to loadbang if needed;
#X text 395 267 pedals down : 1023;
#X text 394 282 pedals up : 0;
#X obj 186 378 s pedalControl2;
#X obj 335 381 s pedalControl1;
#X obj 148 30 inlet;
#X obj 431 49 inlet;
#X obj 438 110 delay 3000;
#X obj 440 136 delay 500;
#X connect 0 0 32 0;
#X connect 1 0 10 0;
#X connect 3 0 10 0;
#X connect 4 0 10 0;
#X connect 6 0 10 0;
#X connect 8 2 13 0;
#X connect 9 0 10 0;
#X connect 10 0 8 0;
#X connect 10 1 21 0;
#X connect 13 0 0 0;
#X connect 13 1 14 0;
#X connect 13 2 15 0;
#X connect 13 3 16 0;
#X connect 13 4 17 0;
#X connect 13 5 18 0;
#X connect 13 6 19 0;
#X connect 16 0 33 0;
#X connect 20 0 10 0;
#X connect 22 0 10 0;
#X connect 24 0 10 0;
#X connect 27 0 6 0;
#X connect 28 0 24 0;
#X connect 28 0 27 0;
#X connect 34 0 28 0;
#X connect 35 0 3 0;
#X connect 36 0 4 0;
#X connect 36 0 37 0;
#X connect 37 0 9 0;
