#N canvas 19 484 504 301 10;
#X declare -lib timbreID/timbreIDLib;
#N canvas 0 64 1440 755 networkGUI 0;
#X msg 12 269 disconnect;
#X obj 93 -27 tgl 15 0 empty empty 1=connected 20 8 0 8 -4034 -257985
-1 1 1;
#X obj 9 83 inlet;
#X msg 9 187 connect 127.0.0.1 12000;
#X obj 12 249 inlet;
#X floatatom 653 66 3 0 0 0 - - -;
#X floatatom 680 66 3 0 0 0 - - -;
#X floatatom 707 66 3 0 0 0 - - -;
#X floatatom 734 66 3 0 0 0 - - -;
#X text 613 65 from;
#X obj 653 42 unpack 0 0 0 0 0;
#X floatatom 762 66 8 0 0 0 - - -;
#X obj 588 19 route received from;
#X floatatom 588 87 5 0 0 0 - - -;
#X text 628 87 bytes;
#X text 646 -6 Open [packOSC-help] to send packets to this patch.;
#X floatatom 340 642 3 0 0 0 - - -;
#X floatatom 367 642 3 0 0 0 - - -;
#X floatatom 394 642 3 0 0 0 - - -;
#X floatatom 421 642 3 0 0 0 - - -;
#X text 300 641 from;
#X text 274 687 arguments are OSC addresses to be routed;
#X obj 340 618 unpack 0 0 0 0 0;
#X floatatom 449 642 8 0 0 0 - - -;
#X obj 275 595 route received from;
#X floatatom 275 663 5 0 0 0 - - -;
#X text 315 663 bytes;
#X text 329 570 Open [packOSC-help] to send packets to this patch.
;
#X obj 173 687 s instance2;
#X obj 118 624 print;
#X text 170 540 For communicating with another instance of Pd;
#X obj 741 528 r connect2instance;
#X msg 742 564 connect 127.0.0.1 9998;
#X msg 771 591 disconnect;
#X obj 739 678 tgl 15 0 empty empty empty 17 7 0 10 -262144 -1 -1 0
1;
#X msg 917 590 send \$1;
#X obj 917 556 r startNIME1;
#X floatatom 981 572 5 0 0 0 - - -;
#N canvas 294 238 730 360 chIn 0;
#X obj 51 50 inlet;
#X obj 25 324 outlet;
#X msg 25 217 send /slider/ch1 \$1;
#X msg 317 212 send /slider/ch3 \$1;
#X msg 445 210 send /slider/ch4 \$1;
#X msg 575 210 send /slider/ch5 \$1;
#X obj 24 197 spigot;
#X obj 165 194 spigot;
#X obj 317 185 spigot;
#X obj 444 187 spigot;
#X obj 575 186 spigot;
#X msg 165 215 send /slider/ch2 \$1;
#X obj 24 162 r ch1in;
#X obj 165 171 r ch2in;
#X obj 313 160 r ch3in;
#X obj 443 163 r ch4in;
#X obj 573 157 r ch5in;
#X connect 0 0 6 1;
#X connect 0 0 7 1;
#X connect 0 0 8 1;
#X connect 0 0 9 1;
#X connect 0 0 10 1;
#X connect 2 0 1 0;
#X connect 3 0 1 0;
#X connect 4 0 1 0;
#X connect 5 0 1 0;
#X connect 6 0 2 0;
#X connect 7 0 11 0;
#X connect 8 0 3 0;
#X connect 9 0 4 0;
#X connect 10 0 5 0;
#X connect 11 0 1 0;
#X connect 12 0 6 0;
#X connect 13 0 7 0;
#X connect 14 0 8 0;
#X connect 15 0 9 0;
#X connect 16 0 10 0;
#X restore 111 100 pd chIn;
#N canvas 53 436 774 370 chOut 0;
#X obj 38 19 inlet;
#X obj 7 313 outlet;
#X obj 9 116 spigot;
#X obj 6 88 r ch1out;
#X msg 7 140 send /slider/ch1o \$1;
#X obj 148 115 spigot;
#X obj 284 114 spigot;
#X obj 427 116 spigot;
#X obj 573 112 spigot;
#X obj 145 87 r ch2out;
#X obj 281 86 r ch3out;
#X msg 282 138 send /slider/ch3o \$1;
#X msg 146 139 send /slider/ch2o \$1;
#X msg 425 140 send /slider/ch4o \$1;
#X obj 424 88 r ch4out;
#X obj 570 84 r ch5out;
#X msg 571 136 send /slider/ch5o \$1;
#X floatatom 97 102 5 0 0 0 - - -;
#X floatatom 231 111 5 0 0 0 - - -;
#X floatatom 348 110 5 0 0 0 - - -;
#X floatatom 499 113 5 0 0 0 - - -;
#X floatatom 654 103 5 0 0 0 - - -;
#X connect 0 0 2 1;
#X connect 0 0 5 1;
#X connect 0 0 6 1;
#X connect 0 0 7 1;
#X connect 0 0 8 1;
#X connect 2 0 4 0;
#X connect 3 0 2 0;
#X connect 4 0 1 0;
#X connect 5 0 12 0;
#X connect 6 0 11 0;
#X connect 7 0 13 0;
#X connect 8 0 16 0;
#X connect 9 0 5 0;
#X connect 10 0 6 0;
#X connect 11 0 1 0;
#X connect 12 0 1 0;
#X connect 13 0 1 0;
#X connect 14 0 7 0;
#X connect 15 0 8 0;
#X connect 16 0 1 0;
#X connect 17 0 4 0;
#X connect 18 0 12 0;
#X connect 19 0 11 0;
#X connect 20 0 13 0;
#X connect 21 0 16 0;
#X restore 186 103 pd chOut;
#N canvas 100 232 1133 377 settings 0;
#X obj 111 12 inlet;
#X obj 56 292 outlet;
#X obj 56 112 spigot;
#X obj 56 89 r neighborhoodMax-1;
#X obj 210 113 spigot;
#X obj 210 90 r neighborhoodMax-2;
#X obj 376 113 spigot;
#X obj 555 113 spigot;
#X obj 723 113 spigot;
#X obj 723 90 r neighborhoodMax-5;
#X obj 555 90 r neighborhoodMax-4;
#X obj 376 90 r neighborhoodMax-3;
#X msg 56 135 send /descriptor/1 \$1;
#X msg 210 136 send /descriptor/2 \$1;
#X msg 376 136 send /descriptor/3 \$1;
#X msg 555 136 send /descriptor/4 \$1;
#X msg 723 136 send /descriptor/5 \$1;
#X connect 0 0 2 1;
#X connect 0 0 4 1;
#X connect 0 0 6 1;
#X connect 0 0 7 1;
#X connect 0 0 8 1;
#X connect 2 0 12 0;
#X connect 3 0 2 0;
#X connect 4 0 13 0;
#X connect 5 0 4 0;
#X connect 6 0 14 0;
#X connect 7 0 15 0;
#X connect 8 0 16 0;
#X connect 9 0 8 0;
#X connect 10 0 7 0;
#X connect 11 0 6 0;
#X connect 12 0 1 0;
#X connect 13 0 1 0;
#X connect 14 0 1 0;
#X connect 15 0 1 0;
#X connect 16 0 1 0;
#X restore 267 103 pd settings;
#X text 187 -25 Only if connected send data;
#N canvas 129 512 1063 301 volControl 0;
#X obj 17 52 inlet;
#X text 230 113 arguments are OSC addresses to be routed;
#X obj 17 138 s ch1Vol;
#X obj 74 165 s ch2Vol;
#X obj 131 139 s ch3Vol;
#X obj 187 165 s ch4Vol;
#X obj 245 139 s ch5Vol;
#X obj 490 50 inlet;
#X text 702 108 arguments are OSC addresses to be routed;
#X obj 490 136 s thres1;
#X obj 547 163 s thres2;
#X obj 604 137 s thres3;
#X obj 660 163 s thres4;
#X obj 718 137 s thres5;
#X floatatom 502 174 5 0 0 0 - - -;
#X obj 17 110 mrpeach/routeOSC /ch1Vol /ch2Vol /ch3Vol /ch4Vol /ch5Vol
;
#X obj 490 108 mrpeach/routeOSC /thres1 /thres2 /thres3 /thres4 /thres5
;
#X connect 0 0 15 0;
#X connect 7 0 16 0;
#X connect 15 0 2 0;
#X connect 15 1 3 0;
#X connect 15 2 4 0;
#X connect 15 3 5 0;
#X connect 15 4 6 0;
#X connect 16 0 9 0;
#X connect 16 0 14 0;
#X connect 16 1 10 0;
#X connect 16 2 11 0;
#X connect 16 3 12 0;
#X connect 16 4 13 0;
#X restore 416 225 pd volControl;
#N canvas 144 450 1296 369 soundfilesControl 0;
#X obj 24 22 inlet;
#X obj 24 148 s soundfile1;
#X obj 90 175 s soundfile2;
#X obj 157 146 s soundfile3;
#X obj 223 173 s soundfile4;
#X obj 290 144 s soundfile5;
#X obj 410 145 s soundfile1name;
#X obj 476 172 s soundfile2name;
#X obj 543 143 s soundfile3name;
#X obj 609 170 s soundfile4name;
#X obj 676 141 s soundfile5name;
#X obj 99 288 s presetsoundfile1;
#X obj 165 315 s presetsoundfile2;
#X obj 232 286 s presetsoundfile3;
#X obj 298 313 s presetsoundfile4;
#X obj 365 284 s presetsoundfile5;
#X obj 24 70 mrpeach/routeOSC /soundfile1 /soundfile2 /soundfile3 /soundfile4
/soundfile5;
#X obj 410 67 mrpeach/routeOSC /soundfile1name /soundfile2name /soundfile3name
/soundfile4name /soundfile5name;
#X obj 99 210 mrpeach/routeOSC /presetsoundfile1 /presetsoundfile2
/presetsoundfile3 /presetsoundfile4 /presetsoundfile5;
#X connect 0 0 16 0;
#X connect 0 0 17 0;
#X connect 0 0 18 0;
#X connect 16 0 1 0;
#X connect 16 1 2 0;
#X connect 16 2 3 0;
#X connect 16 3 4 0;
#X connect 16 4 5 0;
#X connect 17 0 6 0;
#X connect 17 1 7 0;
#X connect 17 2 8 0;
#X connect 17 3 9 0;
#X connect 17 4 10 0;
#X connect 18 0 11 0;
#X connect 18 1 12 0;
#X connect 18 2 13 0;
#X connect 18 3 14 0;
#X connect 18 4 15 0;
#X restore 579 193 pd soundfilesControl;
#N canvas 264 142 475 214 analyzeControl 0;
#X obj 34 32 inlet;
#X obj 34 126 s analyze1;
#X obj 103 153 s analyze2;
#X obj 172 124 s analyze3;
#X obj 241 151 s analyze4;
#X obj 310 122 s analyze5;
#X obj 52 157 print a;
#X obj 34 80 mrpeach/routeOSC /analyze1 /analyze2 /analyze3 /analyze4
/analyze5;
#X connect 0 0 7 0;
#X connect 7 0 1 0;
#X connect 7 0 6 0;
#X connect 7 1 2 0;
#X connect 7 2 3 0;
#X connect 7 3 4 0;
#X connect 7 4 5 0;
#X restore 713 192 pd analyzeControl;
#N canvas 198 170 934 625 descriptorControl 0;
#X obj 44 42 inlet;
#X obj 44 136 s search1;
#X obj 99 163 s search2;
#X obj 155 135 s search3;
#X obj 211 162 s search4;
#X obj 267 134 s search5;
#X obj 414 133 s jump1;
#X obj 465 158 s jump2;
#X obj 515 132 s jump3;
#X obj 567 161 s jump4;
#X obj 619 132 s jump5;
#X obj 73 308 s neighborhood1;
#X obj 136 333 s neighborhood2;
#X obj 199 307 s neighborhood3;
#X obj 262 335 s neighborhood4;
#X obj 325 304 s neighborhood5;
#X obj 442 312 s grainLow1;
#X obj 503 337 s grainLow2;
#X obj 565 308 s grainLow3;
#X obj 630 341 s grainLow4;
#X obj 689 311 s grainLow5;
#X obj 61 464 s grainHigh1;
#X obj 122 489 s grainHigh2;
#X obj 184 460 s grainHigh3;
#X obj 249 493 s grainHigh4;
#X obj 308 463 s grainHigh5;
#X obj 414 112 / 100;
#X obj 464 123 / 100;
#X obj 515 110 / 100;
#X obj 566 121 / 100;
#X obj 618 109 / 100;
#X obj 44 90 mrpeach/routeOSC /search1 /search2 /search3 /search4 /search5
;
#X obj 414 87 mrpeach/routeOSC /jump1 /jump2 /jump3 /jump4 /jump5;
#X obj 442 266 mrpeach/routeOSC /grainLow1 /grainLow2 /grainLow3 /grainLow4
/grainLow5;
#X obj 73 262 mrpeach/routeOSC /neighborhood1 /neighborhood2 /neighborhood3
/neighborhood4 /neighborhood5;
#X obj 61 418 mrpeach/routeOSC /grainHigh1 /grainHigh2 /grainHigh3
/grainHigh4 /grainHigh5;
#X connect 0 0 31 0;
#X connect 0 0 32 0;
#X connect 0 0 33 0;
#X connect 0 0 34 0;
#X connect 0 0 35 0;
#X connect 26 0 6 0;
#X connect 27 0 7 0;
#X connect 28 0 8 0;
#X connect 29 0 9 0;
#X connect 30 0 10 0;
#X connect 31 0 1 0;
#X connect 31 1 2 0;
#X connect 31 2 3 0;
#X connect 31 3 4 0;
#X connect 31 4 5 0;
#X connect 32 0 26 0;
#X connect 32 1 27 0;
#X connect 32 2 28 0;
#X connect 32 3 29 0;
#X connect 32 4 30 0;
#X connect 33 0 16 0;
#X connect 33 1 17 0;
#X connect 33 2 18 0;
#X connect 33 3 19 0;
#X connect 33 4 20 0;
#X connect 34 0 11 0;
#X connect 34 1 12 0;
#X connect 34 2 13 0;
#X connect 34 3 14 0;
#X connect 34 4 15 0;
#X connect 35 0 21 0;
#X connect 35 1 22 0;
#X connect 35 2 23 0;
#X connect 35 3 24 0;
#X connect 35 4 25 0;
#X restore 831 191 pd descriptorControl;
#X obj 27 139 loadbang;
#N canvas 290 238 1150 553 activate 0;
#X obj 22 91 inlet;
#X text 234 149 arguments are OSC addresses to be routed;
#X obj 23 199 s activate1;
#X obj 80 226 s activate2;
#X obj 137 200 s activate3;
#X obj 193 226 s activate4;
#X obj 251 200 s activate5;
#X obj 497 83 inlet;
#X text 798 141 arguments are OSC addresses to be routed;
#X obj 498 191 s activate1in;
#X obj 555 218 s activate2in;
#X obj 612 192 s activate3in;
#X obj 668 218 s activate4in;
#X obj 726 192 s activate5in;
#X obj 498 259 inlet;
#X text 694 286 arguments are OSC addresses to be routed;
#X obj 499 367 s activate1out;
#X obj 556 394 s activate2out;
#X obj 613 368 s activate3out;
#X obj 669 394 s activate4out;
#X obj 727 368 s activate5out;
#X floatatom 583 244 5 0 0 0 - - -;
#X obj 22 149 mrpeach/routeOSC /activate1 /activate2 /activate3 /activate4
/activate5;
#X obj 497 141 mrpeach/routeOSC /activate1in /activate2in /activate3in
/activate4in /activate5in;
#X obj 498 317 mrpeach/routeOSC /activate1out /activate2out /activate3out
/activate4out /activate5out;
#X connect 0 0 22 0;
#X connect 7 0 23 0;
#X connect 14 0 24 0;
#X connect 22 0 2 0;
#X connect 22 1 3 0;
#X connect 22 2 4 0;
#X connect 22 3 5 0;
#X connect 22 4 6 0;
#X connect 23 0 9 0;
#X connect 23 1 10 0;
#X connect 23 2 11 0;
#X connect 23 2 21 0;
#X connect 23 3 12 0;
#X connect 23 4 13 0;
#X connect 24 0 16 0;
#X connect 24 1 17 0;
#X connect 24 2 18 0;
#X connect 24 3 19 0;
#X connect 24 4 20 0;
#X restore 508 225 pd activate;
#X obj 4 523 bng 15 250 50 0 empty empty empty 17 7 0 10 -262144 -1
-1;
#X obj 974 523 bng 15 250 50 0 empty empty empty 17 7 0 10 -262144
-1 -1;
#X text 537 528 deprecated;
#N canvas 1000 134 450 300 ask_init 0;
#X obj 39 45 inlet;
#X obj 42 227 outlet;
#X obj 41 76 change;
#X obj 41 102 sel 1;
#X text 38 8 Ask when Pure Data starts;
#X text 95 114 project name;
#X msg 42 136 send /startup/project 1;
#X connect 0 0 2 0;
#X connect 2 0 3 0;
#X connect 3 0 6 0;
#X connect 6 0 1 0;
#X restore 269 196 pd ask_init;
#N canvas 892 239 450 300 startup 0;
#X obj 27 62 inlet;
#X obj 27 148 s projectName;
#X obj 118 148 print projectName;
#X obj 27 120 mrpeach/routeOSC /project;
#X connect 0 0 3 0;
#X connect 3 0 1 0;
#X connect 3 0 2 0;
#X restore 604 223 pd startup;
#N canvas 860 465 450 300 projectchange 0;
#X obj 34 4 inlet;
#X obj 34 90 s projectchange;
#X obj 34 62 mrpeach/routeOSC /projectchange;
#X connect 0 0 2 0;
#X connect 2 0 1 0;
#X restore 700 222 pd projectchange;
#N canvas 22 204 450 300 data 0;
#X obj 52 237 outlet;
#X text 105 124 project name;
#X obj 54 84 r request-data;
#X msg 54 114 bang;
#X msg 52 146 send /requestdata 1;
#X text 49 18 Request data for synthesis;
#X connect 2 0 3 0;
#X connect 3 0 4 0;
#X connect 4 0 0 0;
#X restore 296 140 pd data;
#N canvas 427 333 450 300 pedalSend 0;
#X obj 139 31 inlet;
#X obj 106 236 outlet;
#X obj 105 109 spigot;
#X obj 105 74 r pedalvalue1;
#X msg 106 129 send /pedal/ch1 \$1;
#X connect 0 0 2 1;
#X connect 2 0 4 0;
#X connect 3 0 2 0;
#X connect 4 0 1 0;
#X restore 321 169 pd pedalSend;
#N canvas 0 25 450 300 capSendMap 0;
#X obj 139 31 inlet;
#X obj 106 236 outlet;
#X obj 105 109 spigot;
#X obj 105 74 r partMap;
#X msg 106 129 send /cap/partMap \$1;
#X connect 0 0 2 1;
#X connect 2 0 4 0;
#X connect 3 0 2 0;
#X connect 4 0 1 0;
#X restore 306 62 pd capSendMap;
#X floatatom 1171 348 3 0 0 0 - - -;
#X floatatom 1198 348 3 0 0 0 - - -;
#X floatatom 1225 348 3 0 0 0 - - -;
#X floatatom 1252 348 3 0 0 0 - - -;
#X text 1131 347 from;
#X obj 1171 324 unpack 0 0 0 0 0;
#X floatatom 1280 348 8 0 0 0 - - -;
#X obj 1106 301 route received from;
#X floatatom 1106 369 5 0 0 0 - - -;
#X text 1146 369 bytes;
#X floatatom 1005 416 5 0 0 0 - - -;
#N canvas 138 119 900 506 informCap 0;
#X obj 233 10 inlet;
#X obj 107 422 outlet;
#X obj 105 109 spigot;
#X msg 106 129 send /areaTouched \$1;
#X floatatom 164 94 5 0 0 0 - - -;
#X obj 83 85 change;
#X obj 328 111 spigot;
#X floatatom 387 96 5 0 0 0 - - -;
#X obj 306 87 change;
#X msg 329 131 send /areaTouched2 \$1;
#X obj 81 41 r areaTouchedMap;
#X obj 306 36 r areaTouchedBrown;
#X obj 328 250 spigot;
#X msg 329 270 send /areaTouched \$1;
#X floatatom 387 235 5 0 0 0 - - -;
#X obj 306 226 change;
#X obj 501 247 spigot;
#X floatatom 560 232 5 0 0 0 - - -;
#X obj 479 223 change;
#X msg 502 267 send /areaTouched2 \$1;
#X obj 304 182 r areaTouched;
#X obj 479 172 r areaTouched2;
#X obj 688 242 spigot;
#X floatatom 747 227 5 0 0 0 - - -;
#X obj 666 218 change;
#X msg 689 262 send /areaTouched3 \$1;
#X obj 666 167 r areaTouched3;
#X floatatom 21 72 5 0 0 0 - - -;
#X connect 0 0 2 1;
#X connect 0 0 6 1;
#X connect 0 0 12 1;
#X connect 0 0 16 1;
#X connect 0 0 22 1;
#X connect 2 0 3 0;
#X connect 3 0 1 0;
#X connect 5 0 2 0;
#X connect 6 0 9 0;
#X connect 8 0 6 0;
#X connect 9 0 1 0;
#X connect 10 0 4 0;
#X connect 10 0 5 0;
#X connect 11 0 7 0;
#X connect 11 0 8 0;
#X connect 12 0 13 0;
#X connect 13 0 1 0;
#X connect 15 0 12 0;
#X connect 16 0 19 0;
#X connect 18 0 16 0;
#X connect 19 0 1 0;
#X connect 20 0 14 0;
#X connect 20 0 15 0;
#X connect 21 0 17 0;
#X connect 21 0 18 0;
#X connect 22 0 25 0;
#X connect 24 0 22 0;
#X connect 25 0 1 0;
#X connect 26 0 23 0;
#X connect 26 0 24 0;
#X connect 27 0 3 0;
#X restore 277 221 pd informCap;
#X text 1118 258 Receive area Touched from Wekinator;
#X obj 1004 434 change;
#X floatatom 800 359 3 0 0 0 - - -;
#X floatatom 827 359 3 0 0 0 - - -;
#X floatatom 854 359 3 0 0 0 - - -;
#X floatatom 881 359 3 0 0 0 - - -;
#X text 760 358 from;
#X obj 800 335 unpack 0 0 0 0 0;
#X floatatom 909 359 8 0 0 0 - - -;
#X obj 735 312 route received from;
#X floatatom 735 380 5 0 0 0 - - -;
#X text 775 380 bytes;
#X floatatom 634 427 5 0 0 0 - - -;
#X text 739 269 Receive area Touched from Wekinator;
#X obj 633 445 change;
#X obj 93 327 mrpeach/udpsend;
#X obj 185 254 mrpeach/packOSC;
#X obj 1004 366 mrpeach/pipelist;
#X obj 1004 392 mrpeach/routeOSC /wek/outputs;
#X obj 1004 277 mrpeach/udpreceive 12012;
#X obj 486 119 mrpeach/unpackOSC;
#X obj 486 146 mrpeach/pipelist;
#X obj 633 403 mrpeach/routeOSC /wek/outputs;
#X obj 1004 334 mrpeach/unpackOSC;
#X obj 633 288 mrpeach/udpreceive 12013;
#X obj 633 345 mrpeach/unpackOSC;
#X obj 633 372 mrpeach/pipelist;
#X obj 173 571 mrpeach/udpreceive 9999;
#X obj 744 638 mrpeach/udpsend;
#X obj 486 -5 mrpeach/udpreceive 12001;
#N canvas 303 102 778 560 loadFromTxt 0;
#X msg 235 202 rewind;
#X obj 173 373 textfile;
#X msg 382 318 bang;
#X msg 208 143 read zku_cinco.txt cr;
#X obj 132 488 outlet;
#X obj 173 446 print read;
#X obj 208 79 loadbang;
#X msg 382 269 1;
#X obj 229 424 print doneReading;
#X msg 416 269 0;
#X obj 382 294 metro 50;
#X msg 288 219 bang;
#X obj 239 171 del 20;
#X obj 288 192 del 20;
#X obj 383 247 del 3000;
#X connect 0 0 1 0;
#X connect 1 0 5 0;
#X connect 1 0 4 0;
#X connect 1 1 8 0;
#X connect 1 1 9 0;
#X connect 2 0 1 0;
#X connect 3 0 1 0;
#X connect 7 0 10 0;
#X connect 9 0 10 0;
#X connect 10 0 2 0;
#X connect 11 0 1 0;
#X connect 12 0 0 0;
#X connect 12 0 13 0;
#X connect 13 0 11 0;
#X connect 13 0 14 0;
#X connect 14 0 7 0;
#X restore 835 116 pd loadFromTxt;
#X obj 425 182 print net;
#N canvas 0 22 450 300 changeThres 0;
#X obj 106 236 outlet;
#X obj 8 64 r thres1tomidi;
#X obj 188 31 r thres2tomidi;
#X obj 315 30 r thres3tomidi;
#X msg 14 168 send /thres/t1 \$1;
#X msg 140 133 send /thres/t2 \$1;
#X msg 311 123 send /thres/t3 \$1;
#X obj 38 19 inlet;
#X obj 9 116 spigot;
#X obj 142 100 spigot;
#X obj 314 93 spigot;
#X connect 1 0 8 0;
#X connect 2 0 9 0;
#X connect 3 0 10 0;
#X connect 4 0 0 0;
#X connect 5 0 0 0;
#X connect 6 0 0 0;
#X connect 7 0 8 1;
#X connect 7 0 9 1;
#X connect 7 0 10 1;
#X connect 8 0 4 0;
#X connect 9 0 5 0;
#X connect 10 0 6 0;
#X restore 352 96 pd changeThres;
#X text 1166 276 Brown;
#X text 792 287 Map;
#X obj 633 466 s areaTouchedMap;
#X obj 1004 455 s areaTouchedBrown;
#X text 780 460 send to informCap;
#X connect 0 0 84 0;
#X connect 1 0 38 0;
#X connect 1 0 39 0;
#X connect 1 0 40 0;
#X connect 1 0 51 0;
#X connect 1 0 55 0;
#X connect 1 0 56 0;
#X connect 1 0 68 0;
#X connect 1 0 101 0;
#X connect 2 0 3 0;
#X connect 3 0 84 0;
#X connect 4 0 0 0;
#X connect 10 0 5 0;
#X connect 10 1 6 0;
#X connect 10 2 7 0;
#X connect 10 3 8 0;
#X connect 10 4 11 0;
#X connect 12 0 13 0;
#X connect 12 1 10 0;
#X connect 22 0 16 0;
#X connect 22 1 17 0;
#X connect 22 2 18 0;
#X connect 22 3 19 0;
#X connect 22 4 23 0;
#X connect 24 0 25 0;
#X connect 24 1 22 0;
#X connect 31 0 32 0;
#X connect 32 0 97 0;
#X connect 33 0 97 0;
#X connect 35 0 97 0;
#X connect 36 0 35 0;
#X connect 37 0 35 0;
#X connect 38 0 85 0;
#X connect 39 0 85 0;
#X connect 40 0 85 0;
#X connect 46 0 3 0;
#X connect 48 0 49 0;
#X connect 51 0 85 0;
#X connect 54 0 85 0;
#X connect 55 0 85 0;
#X connect 56 0 85 0;
#X connect 62 0 57 0;
#X connect 62 1 58 0;
#X connect 62 2 59 0;
#X connect 62 3 60 0;
#X connect 62 4 63 0;
#X connect 64 0 65 0;
#X connect 64 1 62 0;
#X connect 67 0 70 0;
#X connect 68 0 85 0;
#X connect 70 0 105 0;
#X connect 76 0 71 0;
#X connect 76 1 72 0;
#X connect 76 2 73 0;
#X connect 76 3 74 0;
#X connect 76 4 77 0;
#X connect 78 0 79 0;
#X connect 78 1 76 0;
#X connect 81 0 83 0;
#X connect 83 0 104 0;
#X connect 84 0 1 0;
#X connect 85 0 84 0;
#X connect 86 0 87 0;
#X connect 87 0 67 0;
#X connect 88 0 92 0;
#X connect 88 1 64 0;
#X connect 89 0 90 0;
#X connect 89 1 90 1;
#X connect 90 0 42 0;
#X connect 90 0 43 0;
#X connect 90 0 44 0;
#X connect 90 0 47 0;
#X connect 90 0 45 0;
#X connect 90 0 47 1;
#X connect 90 0 47 2;
#X connect 90 0 42 1;
#X connect 90 0 52 0;
#X connect 90 0 53 0;
#X connect 90 0 100 0;
#X connect 91 0 81 0;
#X connect 92 0 86 0;
#X connect 92 1 86 1;
#X connect 93 0 94 0;
#X connect 93 1 78 0;
#X connect 94 0 95 0;
#X connect 94 1 95 1;
#X connect 95 0 91 0;
#X connect 96 0 29 0;
#X connect 96 0 28 0;
#X connect 96 1 24 0;
#X connect 97 0 34 0;
#X connect 98 0 89 0;
#X connect 98 1 12 0;
#X connect 99 0 45 0;
#X connect 99 0 53 0;
#X connect 99 0 44 0;
#X connect 99 0 52 0;
#X connect 99 0 43 0;
#X connect 99 0 42 0;
#X connect 99 0 42 1;
#X connect 99 0 47 0;
#X connect 99 0 47 1;
#X connect 99 0 47 2;
#X connect 101 0 85 0;
#X restore 55 75 pd networkGUI;
#X obj 55 41 bng 15 250 50 0 empty empty empty 17 7 0 10 -204786 -1
-1;
#X text 50 26 start OSC monitor;
#X obj 130 47 bng 15 250 50 0 empty empty empty 17 7 0 10 -258113 -1
-1;
#X text 70 59 disconnect;
#N canvas 147 401 1120 394 instances 0;
#X obj 315 49 r instance-4;
#X floatatom 314 85 5 0 0 0 - - -;
#X floatatom 403 85 5 0 0 0 - - -;
#X floatatom 137 86 5 0 0 0 - - -;
#X floatatom 226 86 5 0 0 0 - - -;
#X floatatom 49 85 5 0 0 0 - - -;
#X obj 50 49 r instance-1;
#X obj 138 50 r instance-2;
#X obj 227 50 r instance-3;
#X obj 404 49 r instance-5;
#X floatatom 496 84 5 0 0 0 - - -;
#X obj 497 48 r instance-6;
#X floatatom 669 83 5 0 0 0 - - -;
#X floatatom 758 83 5 0 0 0 - - -;
#X floatatom 581 84 5 0 0 0 - - -;
#X floatatom 851 82 5 0 0 0 - - -;
#X obj 582 48 r instance-7;
#X obj 670 47 r instance-8;
#X obj 759 47 r instance-9;
#X obj 852 46 r instance-10;
#X floatatom 48 163 5 0 0 0 - - -;
#X floatatom 169 163 5 0 0 0 - - -;
#X floatatom 291 162 5 0 0 0 - - -;
#X floatatom 412 162 5 0 0 0 - - -;
#X floatatom 543 162 5 0 0 0 - - -;
#X obj 543 134 r neighborhoodMax-5;
#X obj 412 134 r neighborhoodMax-4;
#X obj 291 134 r neighborhoodMax-3;
#X obj 169 135 r neighborhoodMax-2;
#X obj 48 135 r neighborhoodMax-1;
#X connect 0 0 1 0;
#X connect 6 0 5 0;
#X connect 7 0 3 0;
#X connect 8 0 4 0;
#X connect 9 0 2 0;
#X connect 11 0 10 0;
#X connect 16 0 14 0;
#X connect 17 0 12 0;
#X connect 18 0 13 0;
#X connect 19 0 15 0;
#X connect 25 0 24 0;
#X connect 26 0 23 0;
#X connect 27 0 22 0;
#X connect 28 0 21 0;
#X connect 29 0 20 0;
#X restore 176 44 pd instances;
#N canvas 0 25 1440 755 Control 0;
#X obj 17 120 s;
#X msg 32 76 search_center-set-\$1;
#X obj 32 98 l2s;
#X obj 32 54 r instance-1;
#X obj 17 31 r search1;
#X obj 168 117 s;
#X msg 182 72 search_center-set-\$1;
#X obj 183 95 l2s;
#X obj 16 239 s;
#X msg 30 194 search_center-set-\$1;
#X obj 31 217 l2s;
#X obj 167 236 s;
#X msg 181 191 search_center-set-\$1;
#X obj 182 214 l2s;
#X obj 341 235 s;
#X msg 355 190 search_center-set-\$1;
#X obj 356 213 l2s;
#X obj 168 28 r search2;
#X obj 181 51 r instance-2;
#X obj 16 150 r search3;
#X obj 29 173 r instance-3;
#X obj 167 147 r search4;
#X obj 180 170 r instance-4;
#X obj 341 146 r search5;
#X obj 354 169 r instance-5;
#X obj 522 380 s;
#X obj 536 360 l2s;
#X obj 534 316 r instance-5;
#X obj 406 380 s;
#X obj 421 358 l2s;
#X obj 283 379 s;
#X obj 298 357 l2s;
#X obj 171 377 s;
#X obj 186 355 l2s;
#X obj 50 377 s;
#X obj 65 355 l2s;
#X obj 63 311 r instance-1;
#X obj 184 311 r instance-2;
#X obj 296 313 r instance-3;
#X obj 419 314 r instance-4;
#X msg 297 334 jump_prob-set-\$1;
#X msg 535 337 jump_prob-set-\$1;
#X msg 420 335 jump_prob-set-\$1;
#X msg 185 332 jump_prob-set-\$1;
#X msg 64 332 jump_prob-set-\$1;
#X obj 591 540 s;
#X obj 606 518 l2s;
#X obj 604 474 r instance-5;
#X obj 451 542 s;
#X obj 466 520 l2s;
#X obj 314 543 s;
#X obj 329 521 l2s;
#X obj 170 542 s;
#X obj 185 520 l2s;
#X obj 30 541 s;
#X obj 45 519 l2s;
#X obj 43 475 r instance-1;
#X obj 183 476 r instance-2;
#X obj 327 477 r instance-3;
#X obj 464 476 r instance-4;
#X msg 605 495 neighborhood-set-\$1;
#X msg 465 497 neighborhood-set-\$1;
#X msg 328 498 neighborhood-set-\$1;
#X msg 184 497 neighborhood-set-\$1;
#X msg 44 496 neighborhood-set-\$1;
#X text 475 113 Search Center;
#X text 12 262 ----------------------;
#X text 13 416 ----------------------;
#X text 653 295 Jump Prob;
#X text 715 456 neighborhood;
#X obj 31 721 s;
#X obj 46 699 l2s;
#X obj 44 655 r instance-1;
#X text 19 603 ----------------------;
#X msg 45 676 grain-size-low-set-\$1;
#X obj 190 721 s;
#X obj 205 699 l2s;
#X msg 204 676 grain-size-low-set-\$1;
#X obj 357 716 s;
#X obj 372 694 l2s;
#X msg 371 671 grain-size-low-set-\$1;
#X obj 516 716 s;
#X obj 531 694 l2s;
#X msg 530 671 grain-size-low-set-\$1;
#X obj 670 717 s;
#X obj 685 695 l2s;
#X msg 684 672 grain-size-low-set-\$1;
#X obj 203 655 r instance-2;
#X obj 370 650 r instance-3;
#X obj 529 650 r instance-4;
#X obj 683 651 r instance-5;
#X obj 28 849 s;
#X obj 43 827 l2s;
#X obj 41 783 r instance-1;
#X obj 187 849 s;
#X obj 202 827 l2s;
#X obj 354 844 s;
#X obj 369 822 l2s;
#X obj 513 844 s;
#X obj 528 822 l2s;
#X obj 667 845 s;
#X obj 682 823 l2s;
#X obj 200 783 r instance-2;
#X obj 367 778 r instance-3;
#X obj 526 778 r instance-4;
#X obj 680 779 r instance-5;
#X msg 42 804 grain-size-hi-set-\$1;
#X msg 201 804 grain-size-hi-set-\$1;
#X msg 368 799 grain-size-hi-set-\$1;
#X msg 527 799 grain-size-hi-set-\$1;
#X msg 681 800 grain-size-hi-set-\$1;
#X text 839 661 Grain Size Low;
#X text 846 779 Grain Size High;
#X text 29 877 ----------------------;
#X obj 11 990 s;
#X obj 26 968 l2s;
#X obj 24 924 r instance-1;
#X obj 128 988 s;
#X obj 143 966 l2s;
#X obj 253 986 s;
#X obj 268 964 l2s;
#X obj 376 984 s;
#X obj 391 962 l2s;
#X obj 498 980 s;
#X obj 513 958 l2s;
#X obj 141 922 r instance-2;
#X obj 266 920 r instance-3;
#X obj 389 918 r instance-4;
#X obj 511 914 r instance-5;
#X obj 11 901 r soundfile1;
#X obj 128 899 r soundfile2;
#X obj 253 897 r soundfile3;
#X obj 376 895 r soundfile4;
#X obj 498 891 r soundfile5;
#X msg 25 945 soundfile-set-\$1;
#X msg 142 943 soundfile-set-\$1;
#X msg 267 941 soundfile-set-\$1;
#X msg 390 939 soundfile-set-\$1;
#X msg 512 935 soundfile-set-\$1;
#X text 39 1018 ----------------------;
#X obj 39 1134 s;
#X obj 54 1112 l2s;
#X obj 52 1068 r instance-1;
#X obj 198 1134 s;
#X obj 213 1112 l2s;
#X obj 365 1129 s;
#X obj 380 1107 l2s;
#X obj 524 1129 s;
#X obj 539 1107 l2s;
#X obj 678 1130 s;
#X obj 693 1108 l2s;
#X obj 211 1068 r instance-2;
#X obj 378 1063 r instance-3;
#X obj 537 1063 r instance-4;
#X obj 691 1064 r instance-5;
#X obj 39 1045 r analyze1;
#X obj 198 1045 r analyze2;
#X obj 365 1040 r analyze3;
#X obj 524 1040 r analyze4;
#X obj 678 1041 r analyze5;
#X msg 53 1089 analyze-\$1;
#X msg 212 1089 analyze-\$1;
#X msg 379 1084 analyze-\$1;
#X msg 538 1084 analyze-\$1;
#X msg 692 1085 analyze-\$1;
#X text 43 1153 ----------------------;
#X obj 43 1269 s;
#X obj 58 1247 l2s;
#X obj 56 1203 r instance-1;
#X obj 202 1269 s;
#X obj 217 1247 l2s;
#X obj 369 1264 s;
#X obj 384 1242 l2s;
#X obj 528 1264 s;
#X obj 543 1242 l2s;
#X obj 682 1265 s;
#X obj 697 1243 l2s;
#X obj 215 1203 r instance-2;
#X obj 382 1198 r instance-3;
#X obj 541 1198 r instance-4;
#X obj 695 1199 r instance-5;
#X obj 43 1180 r activate1;
#X obj 202 1180 r activate2;
#X obj 369 1175 r activate3;
#X obj 528 1175 r activate4;
#X obj 682 1176 r activate5;
#X msg 57 1224 activate-\$1;
#X msg 216 1224 activate-\$1;
#X msg 383 1219 activate-\$1;
#X msg 542 1219 activate-\$1;
#X msg 696 1220 activate-\$1;
#X obj 30 452 r neighborhood1;
#X obj 170 453 r neighborhood2;
#X obj 314 454 r neighborhood3;
#X obj 451 453 r neighborhood4;
#X obj 591 451 r neighborhood5;
#X obj 521 293 r jump5;
#X obj 406 291 r jump4;
#X obj 283 290 r jump3;
#X obj 171 288 r jump2;
#X obj 50 288 r jump1;
#X obj 31 632 r grainLow1;
#X obj 190 632 r grainLow2;
#X obj 357 627 r grainLow3;
#X obj 516 627 r grainLow4;
#X obj 670 628 r grainLow5;
#X obj 28 760 r grainHigh1;
#X obj 187 760 r grainHigh2;
#X obj 354 755 r grainHigh3;
#X obj 513 755 r grainHigh4;
#X obj 667 756 r grainHigh5;
#X text 43 1286 ----------------------;
#X obj 43 1402 s;
#X obj 58 1380 l2s;
#X obj 56 1336 r instance-1;
#X obj 202 1402 s;
#X obj 217 1380 l2s;
#X obj 369 1397 s;
#X obj 384 1375 l2s;
#X obj 528 1397 s;
#X obj 543 1375 l2s;
#X obj 682 1398 s;
#X obj 697 1376 l2s;
#X obj 215 1336 r instance-2;
#X obj 382 1331 r instance-3;
#X obj 541 1331 r instance-4;
#X obj 695 1332 r instance-5;
#X obj 43 1313 r activate1in;
#X obj 202 1313 r activate2in;
#X obj 369 1308 r activate3in;
#X obj 528 1308 r activate4in;
#X obj 682 1309 r activate5in;
#X msg 542 1352 activatein-\$1;
#X msg 696 1353 activatein-\$1;
#X msg 383 1352 activatein-\$1;
#X msg 216 1357 activatein-\$1;
#X msg 57 1357 activatein-\$1;
#X text 38 1423 ----------------------;
#X obj 38 1539 s;
#X obj 53 1517 l2s;
#X obj 51 1473 r instance-1;
#X obj 197 1539 s;
#X obj 212 1517 l2s;
#X obj 364 1534 s;
#X obj 379 1512 l2s;
#X obj 523 1534 s;
#X obj 538 1512 l2s;
#X obj 677 1535 s;
#X obj 692 1513 l2s;
#X obj 210 1473 r instance-2;
#X obj 377 1468 r instance-3;
#X obj 536 1468 r instance-4;
#X obj 690 1469 r instance-5;
#X obj 38 1450 r activate1out;
#X obj 197 1450 r activate2out;
#X obj 364 1445 r activate3out;
#X obj 523 1445 r activate4out;
#X obj 677 1446 r activate5out;
#X msg 691 1490 activateout-\$1;
#X msg 537 1489 activateout-\$1;
#X msg 378 1489 activateout-\$1;
#X msg 211 1494 activateout-\$1;
#X msg 52 1494 activateout-\$1;
#X text 29 1552 ----------------------;
#X obj 29 1668 s;
#X obj 44 1646 l2s;
#X obj 42 1602 r instance-1;
#X obj 188 1668 s;
#X obj 203 1646 l2s;
#X obj 355 1663 s;
#X obj 370 1641 l2s;
#X obj 514 1663 s;
#X obj 529 1641 l2s;
#X obj 668 1664 s;
#X obj 683 1642 l2s;
#X obj 201 1602 r instance-2;
#X obj 368 1597 r instance-3;
#X obj 527 1597 r instance-4;
#X obj 681 1598 r instance-5;
#X obj 29 1579 r ch1Vol;
#X obj 188 1579 r ch2Vol;
#X obj 355 1574 r ch3Vol;
#X obj 514 1574 r ch4Vol;
#X obj 668 1575 r ch5Vol;
#X floatatom 4 1617 5 0 0 0 - - -;
#X msg 43 1623 master-volume-c-\$1;
#X msg 204 1623 master-volume-c-\$1;
#X msg 369 1618 master-volume-c-\$1;
#X msg 528 1618 master-volume-c-\$1;
#X msg 682 1619 master-volume-c-\$1;
#X text 28 1684 ----------------------;
#X obj 28 1800 s;
#X obj 43 1778 l2s;
#X obj 41 1734 r instance-1;
#X obj 187 1800 s;
#X obj 202 1778 l2s;
#X obj 354 1795 s;
#X obj 369 1773 l2s;
#X obj 513 1795 s;
#X obj 528 1773 l2s;
#X obj 667 1796 s;
#X obj 682 1774 l2s;
#X obj 200 1734 r instance-2;
#X obj 367 1729 r instance-3;
#X obj 526 1729 r instance-4;
#X obj 680 1730 r instance-5;
#X floatatom 3 1749 5 0 0 0 - - -;
#X obj 28 1711 r thres1;
#X obj 187 1711 r thres2;
#X obj 354 1706 r thres3;
#X obj 513 1706 r thres4;
#X obj 667 1707 r thres5;
#X msg 203 1755 threshold-\$1;
#X msg 42 1755 threshold-\$1;
#X msg 368 1750 threshold-\$1;
#X msg 527 1750 threshold-\$1;
#X msg 681 1751 threshold-\$1;
#X obj 623 980 s;
#X obj 638 958 l2s;
#X obj 636 914 r instance-1;
#X obj 762 974 s;
#X obj 777 952 l2s;
#X obj 900 970 s;
#X obj 915 948 l2s;
#X obj 1036 966 s;
#X obj 1051 944 l2s;
#X obj 1186 966 s;
#X obj 1201 944 l2s;
#X obj 775 908 r instance-2;
#X obj 913 904 r instance-3;
#X obj 1049 900 r instance-4;
#X obj 1199 900 r instance-5;
#X obj 623 891 r soundfile1name;
#X msg 637 935 soundfilename-set-\$1;
#X msg 776 929 soundfilename-set-\$1;
#X obj 762 885 r soundfile2name;
#X obj 900 881 r soundfile3name;
#X msg 914 925 soundfilename-set-\$1;
#X obj 1036 877 r soundfile4name;
#X msg 1050 921 soundfilename-set-\$1;
#X msg 1200 921 soundfilename-set-\$1;
#X obj 1186 877 r soundfile5name;
#X text 845 1011 ----------------------;
#X obj 790 1124 s;
#X obj 805 1102 l2s;
#X obj 803 1058 r instance-1;
#X obj 945 1120 s;
#X obj 959 1100 l2s;
#X obj 1096 1120 s;
#X obj 1111 1098 l2s;
#X obj 1253 1116 s;
#X obj 1268 1094 l2s;
#X obj 1408 1113 s;
#X obj 1423 1091 l2s;
#X obj 957 1056 r instance-2;
#X obj 1109 1054 r instance-3;
#X obj 1266 1050 r instance-4;
#X obj 1421 1047 r instance-5;
#X obj 790 1035 r presetsoundfile1;
#X obj 944 1033 r presetsoundfile2;
#X obj 1096 1031 r presetsoundfile3;
#X obj 1253 1027 r presetsoundfile4;
#X obj 1409 1023 r presetsoundfile5;
#X msg 801 1081 presetsoundfile-set-\$1;
#X msg 958 1077 presetsoundfile-set-\$1;
#X msg 1110 1075 presetsoundfile-set-\$1;
#X msg 1267 1071 presetsoundfile-set-\$1;
#X msg 1422 1068 presetsoundfile-set-\$1;
#X connect 1 0 2 0;
#X connect 2 0 0 1;
#X connect 3 0 1 0;
#X connect 4 0 0 0;
#X connect 6 0 7 0;
#X connect 7 0 5 1;
#X connect 9 0 10 0;
#X connect 10 0 8 1;
#X connect 12 0 13 0;
#X connect 13 0 11 1;
#X connect 15 0 16 0;
#X connect 16 0 14 1;
#X connect 17 0 5 0;
#X connect 18 0 6 0;
#X connect 19 0 8 0;
#X connect 20 0 9 0;
#X connect 21 0 11 0;
#X connect 22 0 12 0;
#X connect 23 0 14 0;
#X connect 24 0 15 0;
#X connect 26 0 25 1;
#X connect 27 0 41 0;
#X connect 29 0 28 1;
#X connect 31 0 30 1;
#X connect 33 0 32 1;
#X connect 35 0 34 1;
#X connect 36 0 44 0;
#X connect 37 0 43 0;
#X connect 38 0 40 0;
#X connect 39 0 42 0;
#X connect 40 0 31 0;
#X connect 41 0 26 0;
#X connect 42 0 29 0;
#X connect 43 0 33 0;
#X connect 44 0 35 0;
#X connect 46 0 45 1;
#X connect 47 0 60 0;
#X connect 49 0 48 1;
#X connect 51 0 50 1;
#X connect 53 0 52 1;
#X connect 55 0 54 1;
#X connect 56 0 64 0;
#X connect 57 0 63 0;
#X connect 58 0 62 0;
#X connect 59 0 61 0;
#X connect 60 0 46 0;
#X connect 61 0 49 0;
#X connect 62 0 51 0;
#X connect 63 0 53 0;
#X connect 64 0 55 0;
#X connect 71 0 70 1;
#X connect 72 0 74 0;
#X connect 74 0 71 0;
#X connect 76 0 75 1;
#X connect 77 0 76 0;
#X connect 79 0 78 1;
#X connect 80 0 79 0;
#X connect 82 0 81 1;
#X connect 83 0 82 0;
#X connect 85 0 84 1;
#X connect 86 0 85 0;
#X connect 87 0 77 0;
#X connect 88 0 80 0;
#X connect 89 0 83 0;
#X connect 90 0 86 0;
#X connect 92 0 91 1;
#X connect 93 0 106 0;
#X connect 95 0 94 1;
#X connect 97 0 96 1;
#X connect 99 0 98 1;
#X connect 101 0 100 1;
#X connect 102 0 107 0;
#X connect 103 0 108 0;
#X connect 104 0 109 0;
#X connect 105 0 110 0;
#X connect 106 0 92 0;
#X connect 107 0 95 0;
#X connect 108 0 97 0;
#X connect 109 0 99 0;
#X connect 110 0 101 0;
#X connect 115 0 114 1;
#X connect 116 0 134 0;
#X connect 118 0 117 1;
#X connect 120 0 119 1;
#X connect 122 0 121 1;
#X connect 124 0 123 1;
#X connect 125 0 135 0;
#X connect 126 0 136 0;
#X connect 127 0 137 0;
#X connect 128 0 138 0;
#X connect 129 0 114 0;
#X connect 130 0 117 0;
#X connect 131 0 119 0;
#X connect 132 0 121 0;
#X connect 133 0 123 0;
#X connect 134 0 115 0;
#X connect 135 0 118 0;
#X connect 136 0 120 0;
#X connect 137 0 122 0;
#X connect 138 0 124 0;
#X connect 141 0 140 1;
#X connect 142 0 160 0;
#X connect 144 0 143 1;
#X connect 146 0 145 1;
#X connect 148 0 147 1;
#X connect 150 0 149 1;
#X connect 151 0 161 0;
#X connect 152 0 162 0;
#X connect 153 0 163 0;
#X connect 154 0 164 0;
#X connect 155 0 140 0;
#X connect 156 0 143 0;
#X connect 157 0 145 0;
#X connect 158 0 147 0;
#X connect 159 0 149 0;
#X connect 160 0 141 0;
#X connect 161 0 144 0;
#X connect 162 0 146 0;
#X connect 163 0 148 0;
#X connect 164 0 150 0;
#X connect 167 0 166 1;
#X connect 168 0 186 0;
#X connect 170 0 169 1;
#X connect 172 0 171 1;
#X connect 174 0 173 1;
#X connect 176 0 175 1;
#X connect 177 0 187 0;
#X connect 178 0 188 0;
#X connect 179 0 189 0;
#X connect 180 0 190 0;
#X connect 181 0 166 0;
#X connect 182 0 169 0;
#X connect 183 0 171 0;
#X connect 184 0 173 0;
#X connect 185 0 175 0;
#X connect 186 0 167 0;
#X connect 187 0 170 0;
#X connect 188 0 172 0;
#X connect 189 0 174 0;
#X connect 190 0 176 0;
#X connect 191 0 54 0;
#X connect 192 0 52 0;
#X connect 193 0 50 0;
#X connect 194 0 48 0;
#X connect 195 0 45 0;
#X connect 196 0 25 0;
#X connect 197 0 28 0;
#X connect 198 0 30 0;
#X connect 199 0 32 0;
#X connect 200 0 34 0;
#X connect 201 0 70 0;
#X connect 202 0 75 0;
#X connect 203 0 78 0;
#X connect 204 0 81 0;
#X connect 205 0 84 0;
#X connect 206 0 91 0;
#X connect 207 0 94 0;
#X connect 208 0 96 0;
#X connect 209 0 98 0;
#X connect 210 0 100 0;
#X connect 213 0 212 1;
#X connect 214 0 236 0;
#X connect 216 0 215 1;
#X connect 218 0 217 1;
#X connect 220 0 219 1;
#X connect 222 0 221 1;
#X connect 223 0 235 0;
#X connect 224 0 234 0;
#X connect 225 0 232 0;
#X connect 226 0 233 0;
#X connect 227 0 212 0;
#X connect 228 0 215 0;
#X connect 229 0 217 0;
#X connect 230 0 219 0;
#X connect 231 0 221 0;
#X connect 232 0 220 0;
#X connect 233 0 222 0;
#X connect 234 0 218 0;
#X connect 235 0 216 0;
#X connect 236 0 213 0;
#X connect 239 0 238 1;
#X connect 240 0 262 0;
#X connect 242 0 241 1;
#X connect 244 0 243 1;
#X connect 246 0 245 1;
#X connect 248 0 247 1;
#X connect 249 0 261 0;
#X connect 250 0 260 0;
#X connect 251 0 259 0;
#X connect 252 0 258 0;
#X connect 253 0 238 0;
#X connect 254 0 241 0;
#X connect 255 0 243 0;
#X connect 256 0 245 0;
#X connect 257 0 247 0;
#X connect 258 0 248 0;
#X connect 259 0 246 0;
#X connect 260 0 244 0;
#X connect 261 0 242 0;
#X connect 262 0 239 0;
#X connect 265 0 264 1;
#X connect 266 0 285 0;
#X connect 268 0 267 1;
#X connect 270 0 269 1;
#X connect 272 0 271 1;
#X connect 274 0 273 1;
#X connect 275 0 286 0;
#X connect 276 0 287 0;
#X connect 277 0 288 0;
#X connect 278 0 289 0;
#X connect 279 0 264 0;
#X connect 279 0 284 0;
#X connect 280 0 267 0;
#X connect 281 0 269 0;
#X connect 282 0 271 0;
#X connect 283 0 273 0;
#X connect 285 0 265 0;
#X connect 286 0 268 0;
#X connect 287 0 270 0;
#X connect 288 0 272 0;
#X connect 289 0 274 0;
#X connect 292 0 291 1;
#X connect 293 0 313 0;
#X connect 295 0 294 1;
#X connect 297 0 296 1;
#X connect 299 0 298 1;
#X connect 301 0 300 1;
#X connect 302 0 312 0;
#X connect 303 0 314 0;
#X connect 304 0 315 0;
#X connect 305 0 316 0;
#X connect 307 0 291 0;
#X connect 307 0 306 0;
#X connect 308 0 294 0;
#X connect 309 0 296 0;
#X connect 310 0 298 0;
#X connect 311 0 300 0;
#X connect 312 0 295 0;
#X connect 313 0 292 0;
#X connect 314 0 297 0;
#X connect 315 0 299 0;
#X connect 316 0 301 0;
#X connect 318 0 317 1;
#X connect 319 0 333 0;
#X connect 321 0 320 1;
#X connect 323 0 322 1;
#X connect 325 0 324 1;
#X connect 327 0 326 1;
#X connect 328 0 334 0;
#X connect 329 0 337 0;
#X connect 330 0 339 0;
#X connect 331 0 340 0;
#X connect 332 0 317 0;
#X connect 333 0 318 0;
#X connect 334 0 321 0;
#X connect 335 0 320 0;
#X connect 336 0 322 0;
#X connect 337 0 323 0;
#X connect 338 0 324 0;
#X connect 339 0 325 0;
#X connect 340 0 327 0;
#X connect 341 0 326 0;
#X connect 344 0 343 1;
#X connect 345 0 363 0;
#X connect 347 0 346 1;
#X connect 349 0 348 1;
#X connect 351 0 350 1;
#X connect 353 0 352 1;
#X connect 354 0 364 0;
#X connect 355 0 365 0;
#X connect 356 0 366 0;
#X connect 357 0 367 0;
#X connect 358 0 343 0;
#X connect 359 0 346 0;
#X connect 360 0 348 0;
#X connect 361 0 350 0;
#X connect 362 0 352 0;
#X connect 363 0 344 0;
#X connect 364 0 347 0;
#X connect 365 0 349 0;
#X connect 366 0 351 0;
#X connect 367 0 353 0;
#X restore 175 65 pd Control;
#N canvas 96 328 804 364 scenes 0;
#X obj 464 32 r pedalcontrol2;
#X msg 296 114 0;
#X obj 296 90 bang;
#X obj 293 343 s mode;
#X obj 513 148 r mode;
#X obj 295 296 f;
#X obj 293 320 change;
#X floatatom 530 179 5 0 0 0 - - -;
#X obj 498 184 bng 15 250 50 0 empty empty empty 17 7 0 10 -262144
-1 -1;
#X obj 172 106 moses 600;
#X obj 223 133 bang;
#X msg 223 157 1;
#X floatatom 341 44 5 0 0 0 - - -;
#X obj 297 18 r pedalControl1;
#X floatatom 343 93 5 0 0 0 - - -;
#X floatatom 139 81 5 0 0 0 - - -;
#X obj 240 63 moses 1000;
#X obj 206 216 bang;
#X obj 155 189 moses 300;
#X msg 206 240 2;
#X obj 142 234 bang;
#X msg 142 258 3;
#X connect 1 0 5 0;
#X connect 2 0 1 0;
#X connect 4 0 7 0;
#X connect 4 0 8 0;
#X connect 5 0 6 0;
#X connect 6 0 3 0;
#X connect 9 0 18 0;
#X connect 9 1 10 0;
#X connect 10 0 11 0;
#X connect 11 0 5 0;
#X connect 13 0 12 0;
#X connect 13 0 16 0;
#X connect 16 0 9 0;
#X connect 16 0 15 0;
#X connect 16 1 2 0;
#X connect 16 1 14 0;
#X connect 17 0 19 0;
#X connect 18 0 20 0;
#X connect 18 1 17 0;
#X connect 19 0 5 0;
#X connect 20 0 21 0;
#X connect 21 0 5 0;
#X restore 268 15 pd scenes;
#N canvas 506 363 568 361 centers 0;
#X obj 23 -30 hsl 128 15 1 12000 0 0 search1 search1_gui center_1 -2
-8 0 10 -262144 -1 -1 0 1;
#X obj 19 80 hsl 128 15 1 12000 0 0 search2 search2_gui center_2 -2
-8 0 10 -262144 -1 -1 0 1;
#X obj 65 172 hsl 128 15 1 12000 0 0 search3 search3_gui center_3 -2
-8 0 10 -262144 -1 -1 0 1;
#X obj 198 75 hsl 128 15 1 7000 0 0 search4 search4_gui center_4 -2
-8 0 10 -262144 -1 -1 0 1;
#X obj 208 -17 hsl 128 15 1 7000 0 0 search5 search5_gui center_5 -2
-8 0 10 -262144 -1 -1 0 1;
#X floatatom 21 3 5 0 0 0 - - -;
#X floatatom 15 101 5 0 0 0 - - -;
#X floatatom 62 193 5 0 0 0 - - -;
#X floatatom 195 96 5 0 0 0 - - -;
#X floatatom 205 4 5 0 0 0 - - -;
#X floatatom 215 -50 5 0 0 0 - - -;
#X floatatom 212 44 5 0 0 0 - - -;
#X floatatom 76 129 5 0 0 0 - - -;
#X floatatom 27 -85 5 0 0 0 - - -;
#X floatatom 25 27 5 0 0 0 - - -;
#X obj 64 -87 random 6000;
#X obj 69 29 random 5000;
#X obj 123 127 random 4000;
#X connect 0 0 5 0;
#X connect 1 0 6 0;
#X connect 2 0 7 0;
#X connect 3 0 8 0;
#X connect 4 0 9 0;
#X connect 10 0 4 0;
#X connect 11 0 3 0;
#X connect 12 0 2 0;
#X connect 13 0 0 0;
#X connect 14 0 1 0;
#X connect 15 0 13 0;
#X connect 16 0 14 0;
#X connect 17 0 12 0;
#X restore 268 34 pd centers;
#N canvas 342 130 600 831 detectChange 0;
#X obj 40 26 inlet~;
#X obj 173 23 inlet~;
#X obj 249 20 inlet~;
#X obj 261 373 bng 15 250 50 0 empty empty empty 17 7 0 10 -262144
-1 -1;
#X obj 40 90 change;
#X obj 40 112 == 0;
#X obj 174 93 change;
#X obj 174 115 == 0;
#X obj 253 91 change;
#X obj 40 136 change;
#X obj 174 135 change;
#X obj 253 112 == 0;
#X obj 253 132 change;
#X obj 174 213 &&;
#X obj 174 163 t b f;
#X floatatom 268 321 5 0 0 0 - - -;
#X obj 252 300 change;
#X obj 253 280 &&;
#X obj 253 159 t b f;
#X obj 252 340 sel 1;
#X obj 174 71 env~ 4096;
#X obj 40 68 env~ 4096;
#X obj 253 70 env~ 4096;
#X msg 282 372 clear;
#X obj 252 434 urn 6;
#X obj 262 396 delay 100;
#X msg 309 611 1965 3566 1892 0 0;
#X msg 266 530 2326 3488 338 0 0;
#X msg 337 661 2036 4288 3166 0 0;
#X msg 280 556 5943 1203 1066 0 0;
#X msg 252 501 5790 58 718 0 0;
#X msg 295 586 63 627 1925 0 0;
#X msg 323 634 5261 4901 1032 0 0;
#X obj 252 469 sel 0 1 2 3 4 5 6;
#X obj 252 735 outlet;
#X text 373 492 search points for descriptors;
#X text 373 506 for five players;
#X connect 0 0 21 0;
#X connect 1 0 20 0;
#X connect 2 0 22 0;
#X connect 3 0 25 0;
#X connect 4 0 5 0;
#X connect 5 0 9 0;
#X connect 6 0 7 0;
#X connect 7 0 10 0;
#X connect 8 0 11 0;
#X connect 9 0 13 0;
#X connect 10 0 14 0;
#X connect 11 0 12 0;
#X connect 12 0 18 0;
#X connect 13 0 17 0;
#X connect 14 0 13 0;
#X connect 14 1 13 1;
#X connect 16 0 15 0;
#X connect 16 0 19 0;
#X connect 17 0 16 0;
#X connect 18 0 17 0;
#X connect 18 1 17 1;
#X connect 19 0 24 0;
#X connect 20 0 6 0;
#X connect 21 0 4 0;
#X connect 22 0 8 0;
#X connect 23 0 3 0;
#X connect 23 0 24 0;
#X connect 24 0 33 0;
#X connect 24 1 23 0;
#X connect 25 0 24 0;
#X connect 26 0 34 0;
#X connect 27 0 34 0;
#X connect 28 0 34 0;
#X connect 29 0 34 0;
#X connect 30 0 34 0;
#X connect 31 0 34 0;
#X connect 32 0 34 0;
#X connect 33 0 30 0;
#X connect 33 1 27 0;
#X connect 33 2 29 0;
#X connect 33 3 31 0;
#X connect 33 4 26 0;
#X connect 33 5 32 0;
#X connect 33 6 28 0;
#X restore 174 267 pd detectChange;
#X text 40 151 [concatenative $inputCh $outputCh];
#X obj 370 200 s ch2out;
#X obj 196 204 s ch1out;
#N canvas 539 103 450 300 smallSeq 0;
#X obj 117 140 s startNIME1;
#X obj 117 -42 bng 25 250 50 0 empty empty empty 17 7 0 10 -4034 -1
-1;
#X obj 128 99 s endVorslag;
#X obj 129 23 s startVorslag;
#X obj 117 52 delay 120000;
#X obj 135 77 print endVorslag;
#X obj 117 -6 delay 5000;
#X msg 117 120 1;
#X connect 1 0 6 0;
#X connect 4 0 2 0;
#X connect 4 0 5 0;
#X connect 4 0 7 0;
#X connect 6 0 3 0;
#X connect 6 0 4 0;
#X connect 7 0 0 0;
#X restore 269 54 pd smallSeq;
#N canvas 288 86 450 300 activ 0;
#X obj 146 125 s activate;
#X obj 146 104 hradio 15 1 0 8 empty empty empty 0 -8 0 10 -262144
-1 -1 0;
#X text 148 86 0;
#X obj 280 103 hradio 15 1 0 8 empty empty empty 0 -8 0 10 -262144
-1 -1 0;
#X text 282 85 0;
#X obj 280 125 s deactivate;
#X obj 75 40 s analyze;
#X obj 48 64 print analyzed;
#X obj 75 -28 loadbang;
#X obj 75 -9 delay 5000;
#X obj 146 14 delay 1000;
#X obj 75 16 bng 15 250 50 0 empty empty empty 17 7 0 10 -262144 -1
-1;
#N canvas 589 810 450 300 activateChannels 0;
#X obj 61 0 inlet;
#X obj 61 256 outlet;
#X msg 61 30 1;
#X msg 103 94 2;
#X msg 139 119 3;
#X msg 170 144 4;
#X msg 202 172 5;
#X obj 103 69 delay 100;
#X obj 138 97 delay 100;
#X obj 169 122 delay 100;
#X obj 201 150 delay 100;
#X obj 236 172 delay 100;
#X obj 269 199 delay 100;
#X msg 237 194 6;
#X msg 269 234 7;
#X msg 103 46 bang;
#X connect 0 0 2 0;
#X connect 2 0 15 0;
#X connect 2 0 1 0;
#X connect 3 0 1 0;
#X connect 4 0 1 0;
#X connect 5 0 1 0;
#X connect 6 0 1 0;
#X connect 7 0 3 0;
#X connect 7 0 8 0;
#X connect 8 0 4 0;
#X connect 8 0 9 0;
#X connect 9 0 5 0;
#X connect 9 0 10 0;
#X connect 10 0 6 0;
#X connect 10 0 11 0;
#X connect 11 0 13 0;
#X connect 11 0 12 0;
#X connect 12 0 14 0;
#X connect 13 0 1 0;
#X connect 14 0 1 0;
#X connect 15 0 7 0;
#X restore 146 60 pd activateChannels;
#X connect 1 0 0 0;
#X connect 3 0 5 0;
#X connect 8 0 9 0;
#X connect 10 0 12 0;
#X connect 11 0 6 0;
#X connect 11 0 7 0;
#X connect 11 0 10 0;
#X connect 12 0 1 0;
#X restore 271 75 pd activ;
#N canvas 466 60 450 300 lib_imports 0;
#X obj 21 7 declare -lib timbreID/timbreIDLib;
#X restore 176 19 pd lib_imports;
#X obj 119 205 s ch1in;
#X obj 293 200 s ch2in;
#N canvas 189 508 1251 306 examplesControl 0;
#X obj 122 48 unpack f f f f f;
#X obj 26 83 s ch1Vol;
#X obj 91 84 s ch2Vol;
#X obj 152 80 s ch3Vol;
#X obj 211 84 s ch4Vol;
#X obj 278 85 s ch5Vol;
#X msg 121 22 -10 -15 -10 0 -5;
#X obj 220 191 s jump;
#X msg 220 161 0;
#X msg 160 160 0.207;
#X obj 73 196 s neighborhood;
#X msg 73 165 1000;
#X obj 289 181 s grainlow;
#X obj 368 180 s grainhigh;
#X msg 291 145 25;
#X msg 326 145 800;
#X msg 405 147 890;
#X msg 370 147 45;
#X msg 39 165 8000;
#X text 34 125 volumes for each channel;
#X text 307 225 grain size control;
#X text 89 229 neighboor and jump control;
#X msg 579 86 111 221 331 5401 717;
#X obj 569 119 unpack f f f f f;
#X obj 551 151 s search1;
#X obj 618 152 s search2;
#X obj 683 151 s search3;
#X obj 751 150 s search4;
#X obj 816 151 s search5;
#X obj 491 188 s search1_gui;
#X obj 581 188 s search2_gui;
#X obj 670 185 s search3_gui;
#X obj 760 184 s search4_gui;
#X obj 849 182 s search5_gui;
#X obj 581 26 r mode;
#X obj 579 51 sel 1 2 3;
#X floatatom 652 48 5 0 0 0 - - -;
#X text 492 70 START;
#X text 580 232 search descriptor point;
#X obj 970 161 nbx 1 24 -1e+37 1e+37 0 1 empty mode Mode 0 -12 0 20
-4034 -1 -1 0 256;
#X obj 1024 161 hradio 24 1 1 4 mode empty empty 0 -8 0 10 -204786
-1 -1 0;
#X obj 1092 88 bng 15 250 50 0 empty empty empty 17 7 0 10 -262144
-1 -1;
#X obj 1108 67 print ready!;
#X msg 1024 128 0;
#X obj 1053 39 delay 100;
#X obj 1026 8 loadbang;
#N canvas 181 117 450 300 endMute 0;
#X obj 317 66 key;
#X obj 318 101 sel 32;
#X floatatom 270 96 5 0 0 0 - - -;
#X obj 318 215 outlet;
#X msg 326 171 0;
#X connect 0 0 1 0;
#X connect 0 0 2 0;
#X connect 1 0 4 0;
#X connect 4 0 3 0;
#X restore 1060 133 pd endMute;
#X obj 1092 108 s connect2instance;
#X obj 939 66 r endVorslag;
#X connect 0 0 1 0;
#X connect 0 1 2 0;
#X connect 0 2 3 0;
#X connect 0 3 4 0;
#X connect 0 4 5 0;
#X connect 6 0 0 0;
#X connect 8 0 7 0;
#X connect 9 0 7 0;
#X connect 11 0 10 0;
#X connect 14 0 12 0;
#X connect 15 0 12 0;
#X connect 16 0 13 0;
#X connect 17 0 13 0;
#X connect 18 0 10 0;
#X connect 22 0 23 0;
#X connect 23 0 24 0;
#X connect 23 0 29 0;
#X connect 23 1 25 0;
#X connect 23 1 30 0;
#X connect 23 2 26 0;
#X connect 23 2 31 0;
#X connect 23 3 27 0;
#X connect 23 3 32 0;
#X connect 23 4 28 0;
#X connect 23 4 33 0;
#X connect 34 0 35 0;
#X connect 34 0 36 0;
#X connect 35 0 22 0;
#X connect 41 0 47 0;
#X connect 43 0 40 0;
#X connect 44 0 43 0;
#X connect 44 0 41 0;
#X connect 44 0 42 0;
#X connect 45 0 43 0;
#X connect 46 0 40 0;
#X connect 48 0 43 0;
#X restore 265 98 pd examplesControl;
#X obj 21 256 s~ sustainer;
#N canvas 54 139 982 632 capMap 0;
#X floatatom 99 250 5 0 0 0 - - -;
#X floatatom 29 249 5 0 0 0 - - -;
#X obj 99 294 ctlout 2 1;
#X text 24 223 //High Thres;
#X text 101 222 //Low Thres;
#X obj 64 -63 midiin;
#N canvas 963 86 450 818 noteDetection 0;
#X obj 23 54 route 60 61 62 63 64 65 66 67 68 69 70 71;
#X obj 21 21 inlet;
#X obj 23 85 sel 99;
#X obj 43 115 sel 99;
#X obj 63 146 sel 99;
#X obj 83 176 sel 99;
#X obj 104 87 sel 99;
#X obj 124 117 sel 99;
#X obj 144 148 sel 99;
#X obj 164 178 sel 99;
#X obj 185 84 sel 99;
#X obj 205 114 sel 99;
#X obj 225 145 sel 99;
#X obj 245 175 sel 99;
#X obj 23 343 outlet;
#X obj 43 367 outlet;
#X obj 63 391 outlet;
#X obj 83 415 outlet;
#X msg 21 232 1;
#X msg 48 232 0;
#X msg 52 264 1;
#X msg 79 264 0;
#X msg 80 293 1;
#X msg 107 293 0;
#X msg 111 325 1;
#X msg 151 318 0;
#X obj 157 346 outlet;
#X obj 177 370 outlet;
#X obj 197 394 outlet;
#X obj 217 418 outlet;
#X msg 155 235 1;
#X msg 182 235 0;
#X msg 186 267 1;
#X msg 213 267 0;
#X msg 214 296 1;
#X msg 241 296 0;
#X msg 245 328 1;
#X msg 274 329 0;
#X obj 303 324 outlet;
#X obj 323 348 outlet;
#X obj 343 372 outlet;
#X obj 363 396 outlet;
#X msg 301 213 1;
#X msg 328 213 0;
#X msg 332 245 1;
#X msg 359 245 0;
#X msg 360 274 1;
#X msg 387 274 0;
#X msg 391 306 1;
#X msg 414 332 0;
#X connect 0 0 2 0;
#X connect 0 1 3 0;
#X connect 0 2 4 0;
#X connect 0 3 5 0;
#X connect 0 4 6 0;
#X connect 0 5 7 0;
#X connect 0 6 8 0;
#X connect 0 7 9 0;
#X connect 0 8 10 0;
#X connect 0 9 11 0;
#X connect 0 10 12 0;
#X connect 0 11 13 0;
#X connect 1 0 0 0;
#X connect 2 0 18 0;
#X connect 2 1 19 0;
#X connect 3 0 20 0;
#X connect 3 1 21 0;
#X connect 4 0 22 0;
#X connect 4 1 23 0;
#X connect 5 0 24 0;
#X connect 5 1 25 0;
#X connect 6 0 30 0;
#X connect 6 1 31 0;
#X connect 7 0 32 0;
#X connect 7 1 33 0;
#X connect 8 0 34 0;
#X connect 8 1 35 0;
#X connect 9 0 36 0;
#X connect 9 1 37 0;
#X connect 10 0 42 0;
#X connect 10 1 43 0;
#X connect 11 0 44 0;
#X connect 11 1 45 0;
#X connect 12 0 46 0;
#X connect 12 1 47 0;
#X connect 13 0 48 0;
#X connect 13 1 49 0;
#X connect 18 0 14 0;
#X connect 19 0 14 0;
#X connect 20 0 15 0;
#X connect 21 0 15 0;
#X connect 22 0 16 0;
#X connect 23 0 16 0;
#X connect 24 0 17 0;
#X connect 25 0 17 0;
#X connect 30 0 26 0;
#X connect 31 0 26 0;
#X connect 32 0 27 0;
#X connect 33 0 27 0;
#X connect 34 0 28 0;
#X connect 35 0 28 0;
#X connect 36 0 29 0;
#X connect 37 0 29 0;
#X connect 42 0 38 0;
#X connect 43 0 38 0;
#X connect 44 0 39 0;
#X connect 45 0 39 0;
#X connect 46 0 40 0;
#X connect 47 0 40 0;
#X connect 48 0 41 0;
#X connect 49 0 41 0;
#X restore 64 -8 pd noteDetection;
#X obj 36 50 tgl 15 0 empty empty empty 17 7 0 10 -262144 -1 -1 0 1
;
#X obj 53 50 tgl 15 0 empty empty empty 17 7 0 10 -262144 -1 -1 0 1
;
#X obj 70 50 tgl 15 0 empty empty empty 17 7 0 10 -262144 -1 -1 0 1
;
#X obj 87 50 tgl 15 0 empty empty empty 17 7 0 10 -262144 -1 -1 0 1
;
#X obj 104 50 tgl 15 0 empty empty empty 17 7 0 10 -262144 -1 -1 0
1;
#X obj 121 50 tgl 15 0 empty empty empty 17 7 0 10 -262144 -1 -1 0
1;
#X obj 138 50 tgl 15 0 empty empty empty 17 7 0 10 -262144 -1 -1 0
1;
#X obj 155 50 tgl 15 0 empty empty empty 17 7 0 10 -262144 -1 -1 0
1;
#X obj 172 50 tgl 15 0 empty empty empty 17 7 0 10 -262144 -1 -1 0
1;
#X obj 189 50 tgl 15 0 empty empty empty 17 7 0 10 -262144 -1 -1 0
1;
#X obj 206 50 tgl 15 0 empty empty empty 17 7 0 10 -262144 -1 -1 0
1;
#X floatatom 213 -4 5 0 0 0 - - -;
#X floatatom 349 -20 5 0 0 0 - - -;
#X obj 349 -46 ctlin 12 1;
#X obj 213 -45 ctlin 11 1;
#X text 424 -46 //confirmation;
#X obj 29 294 ctlout 1 1;
#X floatatom 103 394 5 0 0 0 - - -;
#X floatatom 33 393 5 0 0 0 - - -;
#X floatatom 355 321 5 0 0 0 - - -;
#X floatatom 280 320 5 0 0 0 - - -;
#X floatatom 359 465 5 0 0 0 - - -;
#X floatatom 284 464 5 0 0 0 - - -;
#X obj 33 438 ctlout 5 1;
#X obj 103 438 ctlout 6 1;
#X obj 280 365 ctlout 11 1;
#X obj 355 365 ctlout 12 1;
#X obj 284 509 ctlout 15 1;
#X obj 359 509 ctlout 16 1;
#X text 175 265 // electrode;
#X text 439 181 // electrode;
#X text 188 290 0;
#X text 194 437 2;
#X text 416 291 5;
#X text 445 448 7;
#X floatatom 625 264 5 0 0 0 - - -;
#X floatatom 550 263 5 0 0 0 - - -;
#X floatatom 629 408 5 0 0 0 - - -;
#X floatatom 554 407 5 0 0 0 - - -;
#X obj 550 308 ctlout 19 1;
#X obj 625 308 ctlout 20 1;
#X obj 554 452 ctlout 23 1;
#X obj 629 452 ctlout 24 1;
#X text 771 191 // electrode;
#X text 785 224 8;
#X text 785 295 9;
#X text 798 371 10;
#X text 793 443 11;
#X text 207 67 11;
#X text 187 66 10;
#X text 158 65 8;
#X obj 729 318 r cal;
#X obj 552 83 s cal;
#X obj 558 44 bng 15 250 50 0 empty empty empty 17 7 0 10 -262144 -1
-1;
#X obj 636 178 r cal;
#X obj 650 -5 loadbang;
#X text 173 66 9;
#X text 142 64 7;
#X obj 646 -26 bng 15 250 50 0 empty empty empty 17 7 0 10 -262144
-1 -1;
#X text 76 71 3;
#X obj 88 346 r cal;
#X obj 314 168 r cal;
#X text 108 68 5;
#X obj 320 405 r cal;
#X msg 324 468 6;
#X msg 401 465 5;
#X msg 69 400 6;
#X msg 159 396 5;
#X msg 586 261 6;
#X msg 665 262 5;
#X msg 60 181 6;
#X msg 172 178 5;
#X msg 685 344 3;
#X msg 728 344 2;
#X msg 290 213 3;
#X msg 354 217 2;
#X obj 641 29 metro 15000;
#X msg 55 79 2;
#X msg 106 88 5;
#X msg 136 87 1;
#X msg 209 95 6;
#X msg 173 92 3;
#X msg 19 77 4;
#X obj 95 138 s partMap;
#X obj 18 51 tgl 15 0 empty empty empty 17 7 0 10 -262144 -1 -1 1 1
;
#X text 115 -64 disconnected to try other strategy with wekinator;
#X obj 64 -38 cyclone/midiparse;
#X connect 0 0 2 0;
#X connect 1 0 23 0;
#X connect 5 0 93 0;
#X connect 6 0 91 0;
#X connect 6 1 7 0;
#X connect 6 2 8 0;
#X connect 6 3 9 0;
#X connect 6 4 10 0;
#X connect 6 5 11 0;
#X connect 6 6 12 0;
#X connect 6 7 13 0;
#X connect 6 8 14 0;
#X connect 6 9 15 0;
#X connect 6 10 16 0;
#X connect 6 11 17 0;
#X connect 8 0 84 0;
#X connect 11 0 85 0;
#X connect 13 0 86 0;
#X connect 15 0 88 0;
#X connect 17 0 87 0;
#X connect 20 0 19 0;
#X connect 21 0 18 0;
#X connect 24 0 31 0;
#X connect 25 0 30 0;
#X connect 26 0 33 0;
#X connect 27 0 32 0;
#X connect 28 0 35 0;
#X connect 29 0 34 0;
#X connect 42 0 47 0;
#X connect 43 0 46 0;
#X connect 44 0 49 0;
#X connect 45 0 48 0;
#X connect 58 0 79 0;
#X connect 58 0 80 0;
#X connect 60 0 59 0;
#X connect 61 0 75 0;
#X connect 61 0 76 0;
#X connect 62 0 83 0;
#X connect 65 0 83 0;
#X connect 67 0 73 0;
#X connect 67 0 74 0;
#X connect 68 0 81 0;
#X connect 68 0 82 0;
#X connect 68 0 78 0;
#X connect 68 0 77 0;
#X connect 70 0 71 0;
#X connect 70 0 72 0;
#X connect 71 0 34 0;
#X connect 72 0 35 0;
#X connect 73 0 30 0;
#X connect 74 0 31 0;
#X connect 75 0 46 0;
#X connect 76 0 47 0;
#X connect 77 0 1 0;
#X connect 78 0 0 0;
#X connect 79 0 48 0;
#X connect 80 0 49 0;
#X connect 81 0 32 0;
#X connect 82 0 33 0;
#X connect 83 0 60 0;
#X connect 84 0 90 0;
#X connect 85 0 90 0;
#X connect 86 0 90 0;
#X connect 87 0 90 0;
#X connect 88 0 90 0;
#X connect 89 0 90 0;
#X connect 91 0 89 0;
#X connect 93 0 6 0;
#X restore 346 16 pd capMap;
#N canvas 90 327 982 323 capControl 0;
#X floatatom 21 40 5 0 0 0 - - -;
#X floatatom 80 40 5 0 0 0 - - -;
#X floatatom 138 40 5 0 0 0 - - -;
#X floatatom 197 40 5 0 0 0 - - -;
#X obj 80 13 ctlin 2;
#X obj 138 13 ctlin 3;
#X obj 197 13 ctlin 4;
#X floatatom 328 41 5 0 0 0 - - -;
#X floatatom 387 41 5 0 0 0 - - -;
#X floatatom 445 41 5 0 0 0 - - -;
#X floatatom 504 41 5 0 0 0 - - -;
#X obj 328 14 ctlin 5;
#X obj 387 14 ctlin 6;
#X obj 445 14 ctlin 7;
#X obj 504 14 ctlin 8;
#X floatatom 625 42 5 0 0 0 - - -;
#X floatatom 684 42 5 0 0 0 - - -;
#X floatatom 742 42 5 0 0 0 - - -;
#X floatatom 801 42 5 0 0 0 - - -;
#X obj 625 15 ctlin 9;
#X obj 684 15 ctlin 10;
#X obj 742 15 ctlin 11;
#X obj 801 15 ctlin 12;
#X floatatom 15 206 5 0 0 0 - - -;
#X floatatom 74 206 5 0 0 0 - - -;
#X floatatom 132 206 5 0 0 0 - - -;
#X floatatom 191 206 5 0 0 0 - - -;
#X floatatom 390 209 5 0 0 0 - - -;
#X floatatom 449 209 5 0 0 0 - - -;
#X floatatom 507 209 5 0 0 0 - - -;
#X floatatom 331 209 5 0 0 0 - - -;
#X floatatom 619 208 5 0 0 0 - - -;
#X floatatom 678 208 5 0 0 0 - - -;
#X floatatom 736 208 5 0 0 0 - - -;
#X floatatom 795 208 5 0 0 0 - - -;
#X obj 15 179 ctlin 13;
#X obj 74 179 ctlin 14;
#X obj 132 179 ctlin 15;
#X obj 191 179 ctlin 16;
#X obj 390 182 ctlin 18;
#X obj 449 182 ctlin 19;
#X obj 507 182 ctlin 20;
#X obj 332 182 ctlin 17;
#X obj 619 181 ctlin 21;
#X obj 678 181 ctlin 22;
#X obj 736 181 ctlin 23;
#X obj 795 181 ctlin 24;
#N canvas 389 263 1423 535 send2wekinator 0;
#X obj 88 223 loadbang;
#X obj 250 107 vsl 15 128 0 127 0 0 empty empty empty 0 -9 0 10 -262144
-1 -1 0 1;
#X obj 275 106 vsl 15 128 0 127 0 0 empty empty empty 0 -9 0 10 -262144
-1 -1 0 1;
#X obj 249 324 bng 15 250 50 0 empty empty empty 17 7 0 10 -262144
-1 -1;
#X obj 299 107 vsl 15 128 0 127 0 0 empty empty empty 0 -9 0 10 -262144
-1 -1 0 1;
#X floatatom 21 40 5 0 0 0 - - -;
#X floatatom 80 40 5 0 0 0 - - -;
#X floatatom 138 40 5 0 0 0 - - -;
#X floatatom 197 40 5 0 0 0 - - -;
#X floatatom 328 41 5 0 0 0 - - -;
#X floatatom 387 41 5 0 0 0 - - -;
#X floatatom 445 41 5 0 0 0 - - -;
#X text 363 407 This patch sends 8 inputs to wekinator on port 6448
\, using message /wek/inputs;
#X obj 331 107 vsl 15 128 0 127 0 0 empty empty empty 0 -9 0 10 -262144
-1 -1 0 1;
#X obj 356 106 vsl 15 128 0 127 0 0 empty empty empty 0 -9 0 10 -262144
-1 -1 0 1;
#X obj 380 107 vsl 15 128 0 127 0 0 empty empty empty 0 -9 0 10 -262144
-1 -1 0 1;
#X obj 414 108 vsl 15 128 0 127 0 0 empty empty empty 0 -9 0 10 -262144
-1 -1 0 1;
#X obj 438 109 vsl 15 128 0 127 0 0 empty empty empty 0 -9 0 10 -262144
-1 -1 0 1;
#X msg 273 64 0;
#X text 578 15 <- from channel 1;
#X floatatom 655 73 5 0 0 0 - - -;
#X floatatom 721 73 5 0 0 0 - - -;
#X floatatom 785 73 5 0 0 0 - - -;
#X floatatom 849 73 5 0 0 0 - - -;
#X floatatom 916 73 5 0 0 0 - - -;
#X floatatom 984 72 5 0 0 0 - - -;
#X floatatom 1052 72 5 0 0 0 - - -;
#X text 1198 38 <- from second midi device channel 2;
#X obj 871 143 vsl 15 128 0 127 0 0 empty empty empty 0 -9 0 10 -262144
-1 -1 0 1;
#X obj 896 142 vsl 15 128 0 127 0 0 empty empty empty 0 -9 0 10 -262144
-1 -1 0 1;
#X obj 876 351 bng 15 250 50 0 empty empty empty 17 7 0 10 -262144
-1 -1;
#X obj 920 143 vsl 15 128 0 127 0 0 empty empty empty 0 -9 0 10 -262144
-1 -1 0 1;
#X obj 952 143 vsl 15 128 0 127 0 0 empty empty empty 0 -9 0 10 -262144
-1 -1 0 1;
#X obj 977 142 vsl 15 128 0 127 0 0 empty empty empty 0 -9 0 10 -262144
-1 -1 0 1;
#X obj 1001 143 vsl 15 128 0 127 0 0 empty empty empty 0 -9 0 10 -262144
-1 -1 0 1;
#X obj 1035 144 vsl 15 128 0 127 0 0 empty empty empty 0 -9 0 10 -262144
-1 -1 0 1;
#X msg 894 100 0;
#X obj 694 315 loadbang;
#X obj 171 400 mrpeach/packOSC;
#X obj 171 433 mrpeach/udpsend;
#X obj 791 428 mrpeach/packOSC;
#X obj 791 461 mrpeach/udpsend;
#X obj 80 13 ctlin 3 1;
#X obj 138 13 ctlin 4 1;
#X obj 197 13 ctlin 6 1;
#X obj 328 14 ctlin 8 1;
#X obj 387 14 ctlin 9 1;
#X obj 445 14 ctlin 10 1;
#X obj 299 340 pack f f f f f f f;
#X msg 173 368 sendtyped /wek/inputs fffffff \$1 \$2 \$3 \$4 \$5 \$6
\$7;
#X msg 88 252 connect localhost 6449;
#X msg 52 323 disconnect;
#X text 57 161 Mappp;
#X msg 736 376 disconnect;
#X msg 694 344 connect localhost 6448;
#X obj 21 13 ctlin 1 2;
#X floatatom 514 40 5 0 0 0 - - -;
#X obj 514 13 ctlin 11 1;
#X obj 655 46 ctlin 1 17;
#X obj 721 46 ctlin 3 17;
#X obj 785 46 ctlin 4 17;
#X obj 849 46 ctlin 6 17;
#X obj 916 46 ctlin 8 17;
#X obj 984 45 ctlin 9 17;
#X obj 1052 45 ctlin 10 17;
#X obj 920 376 pack f f f f f f f;
#X msg 794 404 sendtyped /wek/inputs fffffff \$1 \$2 \$3 \$4 \$5 \$6
\$7;
#X text 724 178 Brown;
#X connect 0 0 50 0;
#X connect 1 0 48 0;
#X connect 2 0 3 0;
#X connect 2 0 48 1;
#X connect 3 0 48 0;
#X connect 4 0 3 0;
#X connect 4 0 48 2;
#X connect 5 0 1 0;
#X connect 6 0 2 0;
#X connect 7 0 4 0;
#X connect 8 0 13 0;
#X connect 9 0 14 0;
#X connect 10 0 15 0;
#X connect 11 0 16 0;
#X connect 13 0 3 0;
#X connect 13 0 48 3;
#X connect 14 0 3 0;
#X connect 14 0 48 4;
#X connect 15 0 3 0;
#X connect 15 0 48 5;
#X connect 16 0 3 0;
#X connect 16 0 48 6;
#X connect 17 0 3 0;
#X connect 18 0 17 0;
#X connect 18 0 16 0;
#X connect 18 0 15 0;
#X connect 18 0 14 0;
#X connect 18 0 13 0;
#X connect 18 0 4 0;
#X connect 18 0 2 0;
#X connect 18 0 1 0;
#X connect 20 0 28 0;
#X connect 21 0 29 0;
#X connect 22 0 31 0;
#X connect 23 0 32 0;
#X connect 24 0 33 0;
#X connect 25 0 34 0;
#X connect 26 0 35 0;
#X connect 28 0 65 0;
#X connect 29 0 30 0;
#X connect 29 0 65 1;
#X connect 30 0 65 0;
#X connect 31 0 30 0;
#X connect 31 0 65 2;
#X connect 32 0 30 0;
#X connect 32 0 65 3;
#X connect 33 0 30 0;
#X connect 33 0 65 4;
#X connect 34 0 30 0;
#X connect 34 0 65 5;
#X connect 35 0 30 0;
#X connect 35 0 65 6;
#X connect 36 0 35 0;
#X connect 36 0 34 0;
#X connect 36 0 33 0;
#X connect 36 0 32 0;
#X connect 36 0 31 0;
#X connect 36 0 29 0;
#X connect 36 0 28 0;
#X connect 37 0 54 0;
#X connect 38 0 39 0;
#X connect 40 0 41 0;
#X connect 42 0 6 0;
#X connect 43 0 7 0;
#X connect 44 0 8 0;
#X connect 45 0 9 0;
#X connect 46 0 10 0;
#X connect 47 0 11 0;
#X connect 48 0 49 0;
#X connect 49 0 38 0;
#X connect 50 0 39 0;
#X connect 51 0 39 0;
#X connect 53 0 41 0;
#X connect 54 0 41 0;
#X connect 55 0 5 0;
#X connect 56 0 17 0;
#X connect 57 0 56 0;
#X connect 58 0 20 0;
#X connect 59 0 21 0;
#X connect 60 0 22 0;
#X connect 61 0 23 0;
#X connect 62 0 24 0;
#X connect 63 0 25 0;
#X connect 64 0 26 0;
#X connect 65 0 66 0;
#X connect 66 0 40 0;
#X restore 299 96 pd send2wekinator;
#X text 40 97 this only visualizes channel 1 \, look here:;
#X obj 21 13 ctlin 1 17;
#X connect 4 0 1 0;
#X connect 5 0 2 0;
#X connect 6 0 3 0;
#X connect 11 0 7 0;
#X connect 12 0 8 0;
#X connect 13 0 9 0;
#X connect 14 0 10 0;
#X connect 19 0 15 0;
#X connect 20 0 16 0;
#X connect 21 0 17 0;
#X connect 22 0 18 0;
#X connect 35 0 23 0;
#X connect 36 0 24 0;
#X connect 37 0 25 0;
#X connect 38 0 26 0;
#X connect 39 0 27 0;
#X connect 40 0 28 0;
#X connect 41 0 29 0;
#X connect 42 0 30 0;
#X connect 43 0 31 0;
#X connect 44 0 32 0;
#X connect 45 0 33 0;
#X connect 46 0 34 0;
#X connect 49 0 0 0;
#X restore 345 37 pd capControl;
#X obj 43 176 concatenativeMultiple2 1 1;
#N canvas 130 25 675 431 midiAreas 0;
#X obj 60 146 s areaTouched;
#X obj 181 145 s areaTouched2;
#X obj 293 146 s areaTouched3;
#X text 133 11 channels of control;
#X obj 60 48 notein 11;
#X obj 181 44 notein 12;
#X obj 293 46 notein 13;
#X obj 60 91 change;
#X obj 181 91 change;
#X obj 293 97 change;
#X obj 157 235 ctlin 60 17;
#X floatatom 159 263 5 0 0 0 - - -;
#X floatatom 275 263 5 0 0 0 - - -;
#X floatatom 393 261 5 0 0 0 - - -;
#X obj 257 236 ctlin 61 17;
#X obj 358 233 ctlin 62 17;
#X obj 105 353 s thres1tomidi;
#X obj 256 349 s thres2tomidi;
#X obj 383 348 s thres3tomidi;
#X obj 60 308 s thres1;
#X obj 276 304 s thres2;
#X obj 398 298 s thres3;
#X floatatom 78 16 5 0 0 0 - - -;
#X obj 111 82 print area1;
#X obj 196 67 print area2;
#X obj 339 82 print area3;
#X floatatom 102 113 5 0 0 0 - - -;
#X obj 404 34 inlet;
#X connect 4 0 7 0;
#X connect 4 0 23 0;
#X connect 5 0 8 0;
#X connect 5 0 24 0;
#X connect 6 0 9 0;
#X connect 6 0 25 0;
#X connect 7 0 0 0;
#X connect 8 0 1 0;
#X connect 9 0 2 0;
#X connect 10 0 11 0;
#X connect 10 0 19 0;
#X connect 10 0 16 0;
#X connect 14 0 12 0;
#X connect 14 0 17 0;
#X connect 14 0 20 0;
#X connect 15 0 13 0;
#X connect 15 0 21 0;
#X connect 15 0 18 0;
#X connect 22 0 7 0;
#X connect 26 0 0 0;
#X connect 27 0 9 0;
#X connect 27 0 25 0;
#X connect 27 0 24 0;
#X connect 27 0 8 0;
#X connect 27 0 7 0;
#X connect 27 0 23 0;
#X restore 353 61 pd midiAreas;
#X obj 217 176 concatenativeMultiple2 2 2;
#X obj 311 125 r thres1;
#X obj 365 126 r thres2;
#X obj 419 126 r thres3;
#X floatatom 311 146 5 0 0 0 - - -;
#X floatatom 366 147 5 0 0 0 - - -;
#X floatatom 419 146 5 0 0 0 - - -;
#X obj 261 226 concatenativeMultiple2 3 3;
#X obj 337 250 s ch3in;
#X obj 414 250 s ch3out;
#X floatatom 397 105 5 0 0 0 - - -;
#X obj 380 82 hradio 15 1 0 8 empty empty empty 0 -8 0 30 -262144 -1
-1 2;
#X connect 1 0 0 0;
#X connect 3 0 0 1;
#X connect 22 0 9 0;
#X connect 22 1 16 0;
#X connect 22 2 12 0;
#X connect 24 0 9 1;
#X connect 24 0 19 0;
#X connect 24 1 17 0;
#X connect 24 2 11 0;
#X connect 25 0 28 0;
#X connect 26 0 29 0;
#X connect 27 0 30 0;
#X connect 31 0 9 2;
#X connect 31 1 32 0;
#X connect 31 2 33 0;
#X connect 35 0 23 0;
#X connect 35 0 34 0;
